<svg xmlns="http://www.w3.org/2000/svg" width="800" height="700">
  <!-- Navbar -->
  <rect x="0" y="0" width="800" height="60" fill="white" stroke="black"/>
  <text x="20" y="35" font-size="20" fill="black">Planora</text>
  <rect x="690" y="15" width="50" height="30" fill="white" stroke="black"/>
  <text x="700" y="35" font-size="14" fill="black">Logout</text>

  <!-- Page Title -->
  <text x="20" y="90" font-size="24" fill="black">Attendees for Music Concert</text>

  <!-- Attendees Table Header -->
  <rect x="20" y="110" width="760" height="30" fill="white" stroke="black"/>
  <text x="40" y="130" font-size="14" fill="black">Name</text>
  <text x="300" y="130" font-size="14" fill="black">Email</text>
  <text x="600" y="130" font-size="14" fill="black">Ticket Type</text>

  <!-- Attendee Row 1 -->
  <rect x="20" y="140" width="760" height="40" fill="white" stroke="black"/>
  <text x="40" y="165" font-size="14" fill="black">Alice Johnson</text>
  <text x="300" y="165" font-size="14" fill="black">alice@example.com</text>
  <text x="600" y="165" font-size="14" fill="black">General Admission</text>

  <!-- Attendee Row 2 -->
  <rect x="20" y="190" width="760" height="40" fill="white" stroke="black"/>
  <text x="40" y="215" font-size="14" fill="black">Bob Smith</text>
  <text x="300" y="215" font-size="14" fill="black">bob@example.com</text>
  <text x="600" y="215" font-size="14" fill="black">VIP Ticket</text>

  <!-- Attendee Row 3 -->
  <rect x="20" y="240" width="760" height="40" fill="white" stroke="black"/>
  <text x="40" y="265" font-size="14" fill="black">Cynthia Lee</text>
  <text x="300" y="265" font-size="14" fill="black">cynthia@example.com</text>
  <text x="600" y="265" font-size="14" fill="black">General Admission</text>

  <!-- Footer -->
  <rect x="0" y="660" width="800" height="40" fill="white" stroke="black"/>
  <text x="20" y="685" font-size="12" fill="black">© 2025 Planora - All rights reserved</text>
</svg>
