<svg xmlns="http://www.w3.org/2000/svg" width="800" height="600">
  <!-- Navbar -->
  <rect x="0" y="0" width="800" height="60" fill="white" stroke="black"/>
  <text x="20" y="35" font-size="20" fill="black">Planora</text>
  <rect x="690" y="15" width="50" height="30" fill="white" stroke="black"/>
  <text x="700" y="35" font-size="14" fill="black">Login</text>
  <rect x="745" y="15" width="50" height="30" fill="white" stroke="black"/>
  <text x="753" y="35" font-size="14" fill="black">Sign</text>

  <!-- Page Title -->
  <text x="20" y="90" font-size="24" fill="black">Edit Event</text>

  <!-- Event Name Field -->
  <text x="20" y="130" font-size="14" fill="black">Event Name</text>
  <rect x="20" y="140" width="300" height="30" fill="white" stroke="black"/>
  <text x="30" y="160" font-size="12" fill="gray">Music Concert</text>

  <!-- Date Field -->
  <text x="20" y="190" font-size="14" fill="black">Date</text>
  <rect x="20" y="200" width="200" height="30" fill="white" stroke="black"/>
  <text x="30" y="220" font-size="12" fill="gray">Aug 5</text>

  <!-- Location Field -->
  <text x="20" y="250" font-size="14" fill="black">Location</text>
  <rect x="20" y="260" width="300" height="30" fill="white" stroke="black"/>
  <text x="30" y="280" font-size="12" fill="gray">Main Hall</text>

  <!-- Banner Image Upload -->
  <text x="400" y="130" font-size="14" fill="black">Event Image</text>
  <rect x="400" y="140" width="300" height="150" fill="white" stroke="black"/>
  <text x="500" y="220" font-size="12" fill="black">Upload New Image</text>

  <!-- Description Field -->
  <text x="20" y="320" font-size="14" fill="black">Description</text>
  <rect x="20" y="330" width="760" height="100" fill="white" stroke="black"/>
  <text x="30" y="360" font-size="12" fill="gray">This music concert brings together...</text>

  <!-- Buttons -->
  <rect x="600" y="450" width="80" height="30" fill="white" stroke="black"/>
  <text x="620" y="470" font-size="14" fill="black">Cancel</text>
  <rect x="690" y="450" width="80" height="30" fill="white" stroke="black"/>
  <text x="715" y="470" font-size="14" fill="black">Save</text>

  <!-- Footer -->
  <rect x="0" y="560" width="800" height="40" fill="white" stroke="black"/>
  <text x="20" y="585" font-size="12" fill="black">© 2025 Planora - All rights reserved</text>
</svg>
