<svg xmlns="http://www.w3.org/2000/svg" width="800" height="800">
  <!-- Navbar -->
  <rect x="0" y="0" width="800" height="60" fill="white" stroke="black"/>
  <text x="20" y="35" font-size="20" fill="black">Planora</text>
  <rect x="600" y="15" width="80" height="30" fill="white" stroke="black"/>
  <text x="615" y="35" font-size="14" fill="black">Search</text>
  <rect x="690" y="15" width="50" height="30" fill="white" stroke="black"/>
  <text x="700" y="35" font-size="14" fill="black">Login</text>
  <rect x="745" y="15" width="50" height="30" fill="white" stroke="black"/>
  <text x="753" y="35" font-size="14" fill="black">Sign</text>

  <!-- Featured Event Banner -->
  <rect x="20" y="70" width="760" height="100" fill="white" stroke="black"/>
  <text x="40" y="110" font-size="20" fill="black">🎉 Featured: Big Summer Festival</text>
  <text x="40" y="130" font-size="14" fill="black">August 30 | City Center</text>
  <rect x="650" y="100" width="100" height="30" fill="white" stroke="black"/>
  <text x="665" y="120" font-size="14" fill="black">Learn More</text>

  <!-- Search Filters -->
  <rect x="20" y="180" width="180" height="30" fill="white" stroke="black"/>
  <text x="30" y="200" font-size="12" fill="black">Search by title</text>
  <rect x="210" y="180" width="150" height="30" fill="white" stroke="black"/>
  <text x="220" y="200" font-size="12" fill="black">Location</text>
  <rect x="370" y="180" width="150" height="30" fill="white" stroke="black"/>
  <text x="380" y="200" font-size="12" fill="black">Date</text>
  <rect x="530" y="180" width="80" height="30" fill="white" stroke="black"/>
  <text x="540" y="200" font-size="12" fill="black">Search</text>

  <!-- Section Title -->
  <text x="20" y="230" font-size="20" fill="black">Upcoming Events</text>

  <!-- ==== Row 1 ==== -->
  <!-- Event Card 1 -->
  <rect x="20" y="250" width="230" height="150" fill="white" stroke="black"/>
  <rect x="30" y="260" width="210" height="60" fill="white" stroke="black"/>
  <text x="100" y="290" font-size="12" fill="black">Image</text>
  <text x="30" y="330" font-size="14" fill="black">Music Concert</text>
  <text x="30" y="350" font-size="12" fill="black">Aug 5 | Main Hall</text>
  <rect x="150" y="330" width="80" height="25" fill="white" stroke="black"/>
  <text x="160" y="348" font-size="12" fill="black">Register</text>

  <!-- Event Card 2 -->
  <rect x="280" y="250" width="230" height="150" fill="white" stroke="black"/>
  <rect x="290" y="260" width="210" height="60" fill="white" stroke="black"/>
  <text x="360" y="290" font-size="12" fill="black">Image</text>
  <text x="290" y="330" font-size="14" fill="black">Tech Meetup</text>
  <text x="290" y="350" font-size="12" fill="black">Aug 10 | City Park</text>
  <rect x="410" y="330" width="80" height="25" fill="white" stroke="black"/>
  <text x="420" y="348" font-size="12" fill="black">Register</text>

  <!-- Event Card 3 -->
  <rect x="540" y="250" width="230" height="150" fill="white" stroke="black"/>
  <rect x="550" y="260" width="210" height="60" fill="white" stroke="black"/>
  <text x="620" y="290" font-size="12" fill="black">Image</text>
  <text x="550" y="330" font-size="14" fill="black">Art Festival</text>
  <text x="550" y="350" font-size="12" fill="black">Aug 15 | Auditorium</text>
  <rect x="670" y="330" width="80" height="25" fill="white" stroke="black"/>
  <text x="680" y="348" font-size="12" fill="black">Register</text>

  <!-- ==== Row 2 ==== -->
  <!-- Event Card 4 -->
  <rect x="20" y="420" width="230" height="150" fill="white" stroke="black"/>
  <rect x="30" y="430" width="210" height="60" fill="white" stroke="black"/>
  <text x="100" y="460" font-size="12" fill="black">Image</text>
  <text x="30" y="500" font-size="14" fill="black">Book Fair</text>
  <text x="30" y="520" font-size="12" fill="black">Aug 18 | Library</text>
  <rect x="150" y="500" width="80" height="25" fill="white" stroke="black"/>
  <text x="160" y="518" font-size="12" fill="black">Register</text>

  <!-- Event Card 5 -->
  <rect x="280" y="420" width="230" height="150" fill="white" stroke="black"/>
  <rect x="290" y="430" width="210" height="60" fill="white" stroke="black"/>
  <text x="360" y="460" font-size="12" fill="black">Image</text>
  <text x="290" y="500" font-size="14" fill="black">Startup Pitch</text>
  <text x="290" y="520" font-size="12" fill="black">Aug 20 | Co-working</text>
  <rect x="410" y="500" width="80" height="25" fill="white" stroke="black"/>
  <text x="420" y="518" font-size="12" fill="black">Register</text>

  <!-- Event Card 6 -->
  <rect x="540" y="420" width="230" height="150" fill="white" stroke="black"/>
  <rect x="550" y="430" width="210" height="60" fill="white" stroke="black"/>
  <text x="620" y="460" font-size="12" fill="black">Image</text>
  <text x="550" y="500" font-size="14" fill="black">Charity Gala</text>
  <text x="550" y="520" font-size="12" fill="black">Aug 25 | Hotel</text>
  <rect x="670" y="500" width="80" height="25" fill="white" stroke="black"/>
  <text x="680" y="518" font-size="12" fill="black">Register</text>

  <!-- Footer -->
  <rect x="0" y="760" width="800" height="40" fill="white" stroke="black"/>
  <text x="20" y="785" font-size="12" fill="black">© 2025 Planora - All rights reserved</text>
</svg>
