<svg xmlns="http://www.w3.org/2000/svg" width="800" height="700">
  <!-- Navbar -->
  <rect x="0" y="0" width="800" height="60" fill="white" stroke="black"/>
  <text x="20" y="35" font-size="20" fill="black">Planora</text>
  <rect x="690" y="15" width="50" height="30" fill="white" stroke="black"/>
  <text x="700" y="35" font-size="14" fill="black">Logout</text>

  <!-- Page Title -->
  <text x="20" y="90" font-size="24" fill="black">My Events Dashboard</text>

  <!-- Event List Header -->
  <rect x="20" y="110" width="760" height="30" fill="white" stroke="black"/>
  <text x="40" y="130" font-size="14" fill="black">Event Title</text>
  <text x="350" y="130" font-size="14" fill="black">Date</text>
  <text x="500" y="130" font-size="14" fill="black">Attendees</text>
  <text x="650" y="130" font-size="14" fill="black">Actions</text>

  <!-- Event Row 1 -->
  <rect x="20" y="140" width="760" height="40" fill="white" stroke="black"/>
  <text x="40" y="165" font-size="14" fill="black">Music Concert</text>
  <text x="350" y="165" font-size="14" fill="black">Aug 5</text>
  <text x="500" y="165" font-size="14" fill="black">120</text>
  <rect x="650" y="150" width="100" height="30" fill="white" stroke="black"/>
  <text x="675" y="170" font-size="12" fill="black">View Attendees</text>

  <!-- Event Row 2 -->
  <rect x="20" y="190" width="760" height="40" fill="white" stroke="black"/>
  <text x="40" y="215" font-size="14" fill="black">Tech Meetup</text>
  <text x="350" y="215" font-size="14" fill="black">Aug 10</text>
  <text x="500" y="215" font-size="14" fill="black">85</text>
  <rect x="650" y="200" width="100" height="30" fill="white" stroke="black"/>
  <text x="675" y="220" font-size="12" fill="black">View Attendees</text>

  <!-- Event Row 3 -->
  <rect x="20" y="240" width="760" height="40" fill="white" stroke="black"/>
  <text x="40" y="265" font-size="14" fill="black">Art Festival</text>
  <text x="350" y="265" font-size="14" fill="black">Aug 15</text>
  <text x="500" y="265" font-size="14" fill="black">60</text>
  <rect x="650" y="250" width="100" height="30" fill="white" stroke="black"/>
  <text x="675" y="270" font-size="12" fill="black">View Attendees</text>

  <!-- Footer -->
  <rect x="0" y="660" width="800" height="40" fill="white" stroke="black"/>
  <text x="20" y="685" font-size="12" fill="black">© 2025 Planora - All rights reserved</text>
</svg>
