<svg xmlns="http://www.w3.org/2000/svg" width="800" height="700">
  <!-- Navbar -->
  <rect x="0" y="0" width="800" height="60" fill="white" stroke="black"/>
  <text x="20" y="35" font-size="20" fill="black">Planora</text>
  <rect x="690" y="15" width="50" height="30" fill="white" stroke="black"/>
  <text x="700" y="35" font-size="14" fill="black">Login</text>
  <rect x="745" y="15" width="50" height="30" fill="white" stroke="black"/>
  <text x="753" y="35" font-size="14" fill="black">Sign</text>

  <!-- Page Title -->
  <text x="20" y="90" font-size="24" fill="black">Purchase Tickets - Music Concert</text>

  <!-- Ticket Selection -->
  <text x="20" y="130" font-size="18" fill="black">Select Tickets</text>

  <rect x="20" y="140" width="300" height="60" fill="white" stroke="black"/>
  <text x="30" y="170" font-size="14" fill="black">General Admission - $20</text>
  <rect x="250" y="150" width="50" height="30" fill="white" stroke="black"/>
  <text x="270" y="175" font-size="14" fill="black">Qty</text>

  <rect x="20" y="210" width="300" height="60" fill="white" stroke="black"/>
  <text x="30" y="240" font-size="14" fill="black">VIP Ticket - $50</text>
  <rect x="250" y="220" width="50" height="30" fill="white" stroke="black"/>
  <text x="270" y="245" font-size="14" fill="black">Qty</text>

  <!-- Payment Info -->
  <text x="400" y="130" font-size="18" fill="black">Payment Information</text>

  <text x="400" y="160" font-size="14" fill="black">Cardholder Name</text>
  <rect x="400" y="170" width="350" height="30" fill="white" stroke="black"/>

  <text x="400" y="210" font-size="14" fill="black">Card Number</text>
  <rect x="400" y="220" width="350" height="30" fill="white" stroke="black"/>

  <text x="400" y="260" font-size="14" fill="black">Expiry Date</text>
  <rect x="400" y="270" width="150" height="30" fill="white" stroke="black"/>

  <text x="560" y="260" font-size="14" fill="black">CVV</text>
  <rect x="560" y="270" width="90" height="30" fill="white" stroke="black"/>

  <!-- Purchase Button -->
  <rect x="600" y="320" width="150" height="40" fill="white" stroke="black"/>
  <text x="630" y="345" font-size="16" fill="black">Purchase</text>

  <!-- Footer -->
  <rect x="0" y="660" width="800" height="40" fill="white" stroke="black"/>
  <text x="20" y="685" font-size="12" fill="black">© 2025 Planora - All rights reserved</text>
</svg>
