<svg xmlns="http://www.w3.org/2000/svg" width="800" height="700">
  <!-- Navbar -->
  <rect x="0" y="0" width="800" height="60" fill="white" stroke="black"/>
  <text x="20" y="35" font-size="20" fill="black">Planora</text>
  <rect x="690" y="15" width="50" height="30" fill="white" stroke="black"/>
  <text x="700" y="35" font-size="14" fill="black">Logout</text>

  <!-- Page Title -->
  <text x="20" y="90" font-size="24" fill="black">My Profile</text>

  <!-- Profile Info -->
  <text x="20" y="130" font-size="18" fill="black">User Information</text>
  <text x="40" y="160" font-size="14" fill="black">Name</text>
  <rect x="150" y="145" width="300" height="30" fill="white" stroke="black"/>
  <text x="40" y="210" font-size="14" fill="black">Email</text>
  <rect x="150" y="195" width="300" height="30" fill="white" stroke="black"/>

  <!-- Registered Events -->
  <text x="20" y="260" font-size="18" fill="black">My Registered Events</text>

  <!-- Event 1 -->
  <rect x="40" y="280" width="720" height="60" fill="white" stroke="black"/>
  <text x="60" y="315" font-size="14" fill="black">Music Concert — Aug 5</text>
  <rect x="650" y="290" width="100" height="30" fill="white" stroke="black"/>
  <text x="670" y="312" font-size="12" fill="black">View Ticket</text>

  <!-- Event 2 -->
  <rect x="40" y="350" width="720" height="60" fill="white" stroke="black"/>
  <text x="60" y="385" font-size="14" fill="black">Tech Meetup — Aug 10</text>
  <rect x="650" y="360" width="100" height="30" fill="white" stroke="black"/>
  <text x="670" y="382" font-size="12" fill="black">View Ticket</text>

  <!-- Edit Profile Button -->
  <rect x="480" y="230" width="150" height="40" fill="white" stroke="black"/>
  <text x="510" y="260" font-size="14" fill="black">Edit Profile</text>

  <!-- Footer -->
  <rect x="0" y="660" width="800" height="40" fill="white" stroke="black"/>
  <text x="20" y="685" font-size="12" fill="black">© 2025 Planora - All rights reserved</text>
</svg>
